<?xml version="1.0" encoding="utf-8" ?>
<svg xmlns="http://www.w3.org/2000/svg" xmlns:xlink="http://www.w3.org/1999/xlink" width="1024" height="1024">
	<path transform="scale(2 2)" d="M262.192 145.611C263.02 139.491 262.865 133.34 262.866 127.181L262.859 104.526C262.863 99.7117 263.415 91.1101 262.706 86.7109C261.748 80.7747 252.581 79.5921 249.996 85.0743C247.201 91.0012 251.474 104.372 248.353 109.031C245.596 113.145 239.065 111.089 238.696 106.369C238.456 103.305 238.728 99.9828 238.723 96.8957C238.703 83.8005 239.408 72.3006 255.411 70.849C273.897 70.9253 273.284 87.3871 273.28 100.868L273.272 126.421C276.073 124.511 278.87 122.621 282.032 121.355C296.05 115.744 307.257 122.869 320.157 110.524C323.153 107.656 326.097 102.827 330.514 102.297C338.977 101.281 336.297 115.101 335.393 119.57C332.682 132.974 328.307 140.279 319.677 150.607C331.901 151.98 366.769 168.743 369.195 180.684C370.903 189.091 361.018 185.997 357.412 184.848C349.973 182.478 342.672 181.518 334.978 183.067C368.786 203.025 393.449 244.82 397.398 283.295C405.292 360.19 350.04 431.227 272.409 439.086C185.119 447.922 108.914 380.433 114.122 291.58C114.379 287.194 115.344 282.439 114.877 278.078L114.835 277.705C116.721 271.992 117.623 266.066 119.279 260.289C127.084 233.052 149.786 197.369 175.548 183.067C169.294 182.572 163.448 183.049 157.404 184.82C154.09 185.791 149.199 188.633 145.873 186.536C138.676 182 148.415 174.367 151.649 171.278C165.311 158.231 175.09 154.432 193.136 150.607C181.939 141.274 175.693 125.431 175.201 111.115C175.113 108.554 175.066 105.512 177.011 103.561C182.17 98.3869 187.104 106.783 190.371 109.808C206.268 124.531 225.148 112.614 239.93 127.748C241.232 126.43 242.802 125.446 244.734 125.633C252.943 126.427 246.915 139.768 250.898 144.781C239.145 162.674 226.213 169.473 205.853 159.134C190.792 161.427 179.537 163.565 166.573 172.185C180.389 171.687 185.504 176.424 196.683 178.221C207.947 180.032 220.896 175.726 231.011 182.444C240.447 188.712 242.042 204.09 255.63 203.776C266.928 203.514 269.507 192.778 276.092 185.853C287.203 174.168 302.877 180.747 316.766 178.205C327.553 176.231 330.842 171.916 344.637 171.555C336.706 166.468 318.998 158.981 309.546 159.134C306.896 159.565 304.424 160.786 301.895 161.653C283.602 167.923 272.289 160.911 262.192 145.611ZM187.056 121.263C193.518 140.56 213.184 161.323 234.491 149.618C235.923 147.74 237.354 145.864 238.738 143.949C229.089 124.589 219.888 131.24 203.637 127.964C196.688 126.563 193.004 123.263 187.056 121.263ZM323.971 121.263C319.931 123.859 315.986 126.399 311.289 127.642C294.725 132.024 282.739 123.78 273.272 144.781C275 146.368 276.651 148.09 278.422 149.618C296.316 162.915 321.307 139.81 324.086 121.432L323.971 121.263ZM188.244 187.611C167.058 196.22 142.712 229.21 134.395 249.106C106.923 314.824 138.443 392.059 204.48 419.192C241.748 434.505 285.276 432.606 320.508 412.903C323.729 411.102 326.855 409.1 330.173 407.482C332.639 404.677 335.959 402.745 338.871 400.453C399.535 352.72 404.548 259.174 347.214 205.734C340.139 199.139 330.483 191.515 321.61 187.611C313.896 189.976 305.47 189.108 297.496 189.042C281.762 188.911 284.757 192.969 275.979 203.986C264.363 218.565 243.487 216.783 233.039 201.875C229.49 196.811 227.677 190.906 220.889 189.558C212.786 187.95 204.226 189.644 195.962 188.682C193.925 188.445 190.092 187.271 188.244 187.611Z"/>
	<path transform="scale(2 2)" d="M262.192 253.457C259.132 253.653 251.514 253.996 248.976 252.593C244.213 249.959 246.262 243.878 250.898 242.725C254.537 242.683 259.713 241.979 263.108 243.355C268.4 245.499 266.684 251.711 262.192 253.457Z"/>
	<path transform="scale(2 2)" d="M220.07 262.451C212.844 262.868 209.694 253.29 225.191 248.526C228.803 248.459 232.315 252.02 230.999 255.756C229.858 258.994 223.092 261.073 220.07 262.451Z"/>
	<path transform="scale(2 2)" d="M292.571 262.451C282.784 260.945 275.177 251.074 285.951 248.526C294.113 249.18 304.117 259.962 292.571 262.451Z"/>
	<path transform="scale(2 2)" d="M318.91 285.494C312.29 286.242 302.814 272.729 311.755 269.745C317.075 269.043 327.743 280.801 318.91 285.494Z"/>
	<path transform="scale(2 2)" d="M197.105 285.494C187.08 287.46 190.357 274.175 198.002 269.745C208.984 268.8 203.655 282.399 197.105 285.494Z"/>
	<path transform="scale(2 2)" d="M289.363 347.619C284.528 348.33 268.662 330.28 264.872 326.486C262.061 323.672 250.994 314.794 250.452 311.239C249.715 306.405 249.45 278.735 250.489 274.039C250.923 272.074 252.676 270.754 254.28 269.745C263.224 270.44 260.719 278.915 260.714 285.487L260.694 307.891C268.31 315.098 275.61 322.611 283.042 330.002C287.283 334.219 300.551 342.851 289.363 347.619Z"/>
	<path transform="scale(2 2)" d="M323.971 316.045C322.394 311.594 320.126 303.055 326.09 301.308C332.799 299.37 337.902 313.697 330.173 318.296C327.655 318.549 325.812 317.802 323.971 316.045Z"/>
	<path transform="scale(2 2)" d="M185.835 318.296C176.293 320.831 177.916 304.351 182.999 301.308C193.351 300.072 191.371 315.502 185.835 318.296Z"/>
	<path transform="scale(2 2)" d="M190.896 353.191C183.297 352.922 178.232 338.09 187.056 336.275C193.163 335.638 199.254 350.448 190.896 353.191Z"/>
	<path transform="scale(2 2)" d="M323.177 353.191C312.652 354.472 317.343 338.778 323.177 336.275C333.583 335.567 329.17 350.201 323.177 353.191Z"/>
	<path transform="scale(2 2)" d="M301.201 381.382C290.258 381.141 296.622 368.763 305.38 366.51C315.274 365.597 311.503 377.634 301.201 381.382Z"/>
	<path transform="scale(2 2)" d="M212.886 381.382C206.176 381.561 195.878 370.226 205.853 366.51C212.601 366.402 222.373 377.114 212.886 381.382Z"/>
	<path transform="scale(2 2)" d="M269.524 396.183C261.287 395.004 261.387 385.355 276.724 383.762C280.626 383.524 283.352 388.282 281.101 391.556C279.113 394.446 272.857 395.487 269.524 396.183Z"/>
	<path transform="scale(2 2)" d="M243.357 396.183C232.116 395.106 224.507 387.112 235.447 383.762C239.857 384.628 250.402 385.661 247.323 392.793C246.555 394.571 245.069 395.456 243.357 396.183Z"/>
</svg>
