<svg width="1080" height="1080" viewBox="0 0 1080 1080" fill="none" xmlns="http://www.w3.org/2000/svg">
<path d="M553.061 307.148C554.808 294.239 554.481 281.264 554.483 268.272L554.468 220.485C554.477 210.329 555.641 192.185 554.145 182.906C552.125 170.384 532.788 167.89 527.335 179.454C521.44 191.956 530.453 220.16 523.87 229.987C518.054 238.665 504.278 234.328 503.499 224.372C502.993 217.909 503.567 210.901 503.556 204.389C503.514 176.767 505.001 152.509 538.758 149.447C577.751 149.608 576.458 184.332 576.45 212.768L576.433 266.669C582.342 262.64 588.241 258.654 594.911 255.983C624.481 244.148 648.12 259.177 675.331 233.137C681.651 227.087 687.861 216.901 697.178 215.783C715.03 213.64 709.377 242.791 707.47 252.218C701.751 280.492 692.523 295.901 674.319 317.687C700.104 320.583 773.653 355.942 778.771 381.13C782.374 398.864 761.522 392.337 753.916 389.914C738.224 384.915 722.824 382.89 706.594 386.157C777.908 428.256 829.932 516.417 838.261 597.575C854.913 759.776 738.366 909.619 574.613 926.197C390.485 944.835 229.74 802.476 240.726 615.052C241.268 605.8 243.304 595.77 242.319 586.571L242.23 585.784C246.208 573.733 248.111 561.233 251.604 549.047C268.068 491.594 315.955 416.325 370.297 386.157C357.105 385.113 344.773 386.119 332.024 389.855C325.034 391.903 314.717 397.898 307.701 393.474C292.52 383.906 313.063 367.805 319.885 361.29C348.703 333.769 369.33 325.755 407.396 317.687C383.778 298 370.602 264.581 369.565 234.383C369.379 228.981 369.28 222.564 373.383 218.449C384.265 207.535 394.673 225.245 401.564 231.626C435.097 262.683 474.922 237.545 506.102 269.468C508.849 266.688 512.16 264.613 516.236 265.007C533.552 266.682 520.836 294.823 529.238 305.397C504.446 343.14 477.168 357.482 434.221 335.673C402.452 340.51 378.711 345.02 351.365 363.203C380.508 362.152 391.298 372.144 414.878 375.935C438.638 379.755 465.953 370.672 487.289 384.843C507.193 398.064 510.557 430.502 539.22 429.84C563.051 429.287 568.491 406.641 582.382 392.034C605.819 367.386 638.881 381.263 668.178 375.901C690.932 371.737 697.87 362.635 726.969 361.874C710.239 351.143 672.886 335.351 652.949 335.673C647.359 336.582 642.144 339.158 636.81 340.987C598.223 354.213 574.36 339.422 553.061 307.148ZM394.571 255.789C408.202 296.494 449.685 340.291 494.629 315.6C497.65 311.639 500.669 307.682 503.588 303.642C483.235 262.805 463.826 276.834 429.547 269.924C414.889 266.969 407.118 260.008 394.571 255.789ZM683.376 255.789C674.854 261.265 666.533 266.623 656.625 269.245C621.686 278.488 596.403 261.098 576.433 305.397C580.078 308.745 583.561 312.377 587.296 315.6C625.042 343.649 677.757 294.912 683.619 256.146L683.376 255.789ZM397.077 395.742C352.388 413.902 301.033 483.49 283.489 525.458C225.541 664.082 292.028 826.999 431.325 884.233C509.937 916.534 601.754 912.528 676.072 870.967C682.866 867.168 689.46 862.945 696.459 859.532C701.66 853.616 708.664 849.54 714.806 844.706C842.769 744.019 853.343 546.695 732.405 433.97C717.481 420.059 697.113 403.977 678.396 395.742C662.124 400.731 644.351 398.9 627.531 398.76C594.342 398.484 600.659 407.044 582.143 430.283C557.641 461.036 513.605 457.277 491.567 425.83C484.08 415.148 480.256 402.692 465.938 399.849C448.846 396.457 430.789 400.03 413.357 398.001C409.061 397.501 400.975 395.025 397.077 395.742Z" fill="white"/>
<path d="M553.061 534.636C546.606 535.049 530.537 535.773 525.184 532.813C515.137 527.257 519.459 514.43 529.238 511.998C536.914 511.909 547.832 510.424 554.993 513.327C566.156 517.849 562.536 530.953 553.061 534.636Z" fill="white"/>
<path d="M464.21 553.608C448.968 554.487 442.323 534.284 475.012 524.235C482.631 524.093 490.039 531.605 487.264 539.485C484.857 546.315 470.585 550.701 464.21 553.608Z" fill="white"/>
<path d="M617.142 553.608C596.498 550.431 580.451 529.609 603.178 524.235C620.395 525.614 641.497 548.357 617.142 553.608Z" fill="white"/>
<path d="M672.701 602.214C658.737 603.792 638.748 575.288 657.608 568.993C668.83 567.513 691.333 592.315 672.701 602.214Z" fill="white"/>
<path d="M415.768 602.214C394.622 606.361 401.534 578.338 417.66 568.993C440.826 567 429.585 595.685 415.768 602.214Z" fill="white"/>
<path d="M610.375 733.259C600.176 734.759 566.709 696.684 558.714 688.681C552.785 682.746 529.44 664.019 528.297 656.52C526.743 646.323 526.184 587.957 528.375 578.051C529.291 573.906 532.988 571.122 536.372 568.993C555.238 570.459 549.954 588.336 549.944 602.199L549.901 649.458C565.966 664.66 581.365 680.508 597.042 696.098C605.988 704.993 633.975 723.201 610.375 733.259Z" fill="white"/>
<path d="M683.376 666.657C680.05 657.269 675.266 639.257 687.846 635.572C701.998 631.484 712.762 661.705 696.459 671.406C691.147 671.939 687.26 670.364 683.376 666.657Z" fill="white"/>
<path d="M391.996 671.406C371.868 676.753 375.292 641.99 386.013 635.572C407.85 632.964 403.673 665.512 391.996 671.406Z" fill="white"/>
<path d="M402.671 745.012C386.642 744.445 375.958 713.159 394.571 709.33C407.453 707.986 420.301 739.226 402.671 745.012Z" fill="white"/>
<path d="M681.701 745.012C659.5 747.714 669.395 714.61 681.701 709.33C703.652 707.837 694.343 738.705 681.701 745.012Z" fill="white"/>
<path d="M635.346 804.478C612.263 803.969 625.687 777.859 644.161 773.107C665.031 771.181 657.077 796.572 635.346 804.478Z" fill="white"/>
<path d="M449.056 804.478C434.902 804.855 413.18 780.945 434.221 773.107C448.455 772.879 469.068 795.475 449.056 804.478Z" fill="white"/>
<path d="M568.527 835.699C551.152 833.212 551.363 812.858 583.715 809.498C591.946 808.996 597.696 819.032 592.947 825.938C588.754 832.034 575.558 834.23 568.527 835.699Z" fill="white"/>
<path d="M513.331 835.699C489.62 833.427 473.569 816.564 496.646 809.498C505.948 811.325 528.192 813.504 521.697 828.548C520.077 832.298 516.942 834.165 513.331 835.699Z" fill="white"/>
</svg>
